<svg xmlns="http://www.w3.org/2000/svg" viewBox="0 0 10 22" width="10" height="22">
	<style>
		tspan { white-space:pre }
		.shp0 { fill: #629fd1 } 
	</style>
	<path id="Иконка" class="shp0" d="M2.16 4.87C2.16 5.38 2.16 7.63 2.16 7.63L0 7.63L0 10.99L2.16 10.99L2.16 21L6.6 21L6.6 10.99L9.58 10.99C9.58 10.99 9.86 9.38 9.99 7.61C9.61 7.61 6.62 7.61 6.62 7.61C6.62 7.61 6.62 5.65 6.62 5.31C6.62 4.97 7.1 4.5 7.58 4.5C8.06 4.5 9.07 4.5 10 4.5C10 4.05 10 2.46 10 1C8.75 1 7.34 1 6.71 1C2.05 1 2.16 4.37 2.16 4.87Z" />
</svg>