<svg xmlns="http://www.w3.org/2000/svg" viewBox="0 0 22 21" width="22" height="21">
	<style>
		tspan { white-space:pre }
		.shp0 { fill: #629fd1 } 
	</style>
	<path id="Иконка" class="shp0" d="M21 12.65L21 20.01L16.71 20.01L16.71 13.14C16.71 11.42 16.09 10.24 14.54 10.24C13.36 10.24 12.65 11.04 12.34 11.8C12.23 12.08 12.2 12.46 12.2 12.84L12.2 20.01L7.91 20.01C7.91 20.01 7.97 8.38 7.91 7.18L12.2 7.18L12.2 9C12.19 9.01 12.18 9.02 12.17 9.04L12.2 9.04L12.2 9C12.77 8.12 13.79 6.88 16.06 6.88C18.89 6.88 21 8.71 21 12.65L21 12.65ZM3.43 0.99C1.96 0.99 1 1.95 1 3.21C1 4.44 1.93 5.43 3.37 5.43L3.4 5.43C4.89 5.43 5.82 4.44 5.82 3.21C5.79 1.95 4.89 0.99 3.42 0.99L3.43 0.99ZM1.25 20.01L5.54 20.01L5.54 7.18L1.25 7.18L1.25 20.01Z" />
</svg>