<svg xmlns="http://www.w3.org/2000/svg" viewBox="0 0 27 18" width="27" height="18">
	<style>
		tspan { white-space:pre }
		.shp0 { fill: #629fd1 } 
	</style>
	<path id="Иконка" class="shp0" d="M23.17 7.56C24.57 7.45 25.53 6.82 25.89 5.96C25.38 6.27 23.81 6.61 22.94 6.29C22.9 6.09 22.85 5.9 22.81 5.72C22.15 3.32 19.88 1.39 17.51 1.63C17.7 1.55 17.89 1.48 18.09 1.41C18.35 1.32 19.88 1.08 19.64 0.54C19.44 0.07 17.56 0.9 17.21 1C17.68 0.83 18.45 0.53 18.53 0.01C17.82 0.1 17.12 0.44 16.58 0.92C16.77 0.71 16.92 0.46 16.95 0.19C15.05 1.39 13.94 3.8 13.04 6.15C12.33 5.47 11.71 4.94 11.14 4.65C9.57 3.81 7.68 2.94 4.73 1.86C4.64 2.83 5.21 4.11 6.87 4.96C6.51 4.92 5.85 5.02 5.33 5.15C5.54 6.25 6.24 7.16 8.13 7.6C7.27 7.66 6.82 7.85 6.41 8.27C6.81 9.04 7.77 9.95 9.49 9.76C7.57 10.58 8.71 12.09 10.27 11.86C7.61 14.58 3.41 14.38 1 12.1C7.29 20.57 20.98 17.11 23.02 8.96C24.55 8.97 25.45 8.44 26 7.85C25.12 7.99 23.85 7.84 23.17 7.56L23.17 7.56Z" />
</svg>