<svg xmlns="http://www.w3.org/2000/svg" viewBox="0 0 26 16" width="26" height="16">
	<style>
		tspan { white-space:pre }
		.shp0 { fill: #629fd1 } 
	</style>
	<path id="Иконка" class="shp0" d="M12.23 14.96L13.73 14.96C13.73 14.96 14.18 14.91 14.41 14.65C14.62 14.41 14.61 13.95 14.61 13.95C14.61 13.95 14.58 11.84 15.52 11.53C16.43 11.22 17.61 13.57 18.86 14.48C19.8 15.16 20.52 15.01 20.52 15.01L23.86 14.96C23.86 14.96 25.61 14.85 24.78 13.4C24.71 13.28 24.3 12.33 22.3 10.37C20.2 8.33 20.48 8.66 23 5.12C24.54 2.96 25.15 1.65 24.96 1.08C24.78 0.55 23.65 0.69 23.65 0.69L19.89 0.71C19.89 0.71 19.61 0.67 19.41 0.8C19.2 0.93 19.07 1.23 19.07 1.23C19.07 1.23 18.48 2.9 17.69 4.32C16.01 7.31 15.34 7.47 15.07 7.28C14.43 6.85 14.59 5.54 14.59 4.61C14.59 1.71 15.01 0.5 13.78 0.19C13.37 0.08 13.07 0.02 12.02 0C10.68 -0.01 9.55 0.01 8.9 0.34C8.48 0.56 8.15 1.05 8.35 1.08C8.6 1.11 9.16 1.24 9.46 1.67C9.84 2.22 9.83 3.46 9.83 3.46C9.83 3.46 10.05 6.87 9.31 7.3C8.8 7.59 8.11 7 6.62 4.28C5.85 2.89 5.27 1.35 5.27 1.35C5.27 1.35 5.16 1.06 4.96 0.91C4.72 0.72 4.39 0.66 4.39 0.66L0.82 0.69C0.82 0.69 0.28 0.7 0.08 0.95C-0.09 1.17 0.07 1.62 0.07 1.62C0.07 1.62 2.86 8.51 6.03 11.98C8.94 15.17 12.23 14.96 12.23 14.96Z" />
</svg>