<svg xmlns="http://www.w3.org/2000/svg" viewBox="0 0 45 44" width="45" height="44">
	<style>
		tspan { white-space:pre }
		.shp0 { fill: #629fd1 } 
	</style>
	<path id="Иконка" class="shp0" d="M41 0L5 0C2.79 0 1 1.79 1 4L1 34C1 36.21 2.79 38 5 38L19 38L19 42L16 42C15.45 42 15 42.45 15 43C15 43.55 15.45 44 16 44L19 44L27 44L30 44C30.55 44 31 43.55 31 43C31 42.45 30.55 42 30 42L27 42L27 38L41 38C43.21 38 45 36.21 45 34L45 4C45 1.79 43.21 0 41 0ZM25 42L21 42L21 38L25 38L25 42ZM43 34C43 35.1 42.1 36 41 36L27 36L19 36L5 36C3.9 36 3 35.1 3 34L3 32L43 32L43 34ZM43 30L3 30L3 4C3 2.9 3.9 2 5 2L41 2C42.1 2 43 2.9 43 4L43 30ZM28.34 21.07L26.73 20.64C28.1 19.55 29 17.89 29 16C29 13.53 27.51 11.42 25.38 10.5L24.84 12.47C26.12 13.13 27 14.46 27 16C27 17.25 26.42 18.35 25.52 19.08L26.05 17.1C26.11 16.85 26.08 16.58 25.95 16.34C25.67 15.86 25.06 15.7 24.58 15.97C24.34 16.11 24.18 16.33 24.11 16.58L23.02 20.68L23.02 20.68C22.95 20.93 22.98 21.2 23.12 21.44C23.25 21.66 23.45 21.81 23.68 21.88L23.66 21.93C23.7 21.93 23.73 21.92 23.76 21.91L27.82 23C28.07 23.07 28.34 23.04 28.58 22.9C29.06 22.62 29.22 22.01 28.95 21.54C28.81 21.3 28.59 21.14 28.34 21.07ZM22.95 10.59C22.82 10.37 22.62 10.23 22.4 10.16L22.42 10.06C22.36 10.06 22.29 10.08 22.22 10.1L18.24 9.03C17.99 8.96 17.72 8.99 17.48 9.13C17 9.41 16.84 10.02 17.12 10.5C17.25 10.73 17.48 10.9 17.72 10.96L19.26 11.37C17.89 12.46 17 14.11 17 16C17 18.5 18.53 20.64 20.7 21.54L21.24 19.57C19.92 18.92 19 17.57 19 16C19 14.71 19.62 13.58 20.57 12.85L20.02 14.93C19.95 15.18 19.98 15.45 20.12 15.69C20.39 16.17 21 16.33 21.48 16.06C21.72 15.92 21.88 15.7 21.95 15.45L23.05 11.35C23.11 11.11 23.08 10.83 22.95 10.59Z" />
</svg>