<svg xmlns="http://www.w3.org/2000/svg" viewBox="0 0 45 36" width="45" height="36">
	<style>
		tspan { white-space:pre }
		.shp0 { fill: #629fd1 } 
	</style>
	<path id="Иконка" class="shp0" d="M42 4L40 4L30 4C30 1.79 28.21 0 26 0L18 0C15.79 0 14 1.79 14 4L4 4L2 4C0.9 4 0 4.9 0 6L0 16C0 17.1 0.9 18 2 18L2 34C2 35.1 2.9 36 4 36L40 36C41.1 36 42 35.1 42 34L42 18C43.1 18 44 17.1 44 16L44 6C44 4.9 43.1 4 42 4ZM18 2L26 2C27.1 2 28 2.9 28 4L16 4C16 2.9 16.9 2 18 2ZM40 34L4 34L4 18L8 18L8 20C8 21.1 8.9 22 10 22L14 22C15.1 22 16 21.1 16 20L16 18L28 18L28 20C28 21.1 28.9 22 30 22L34 22C35.1 22 36 21.1 36 20L36 18L40 18L40 34ZM10 20L10 14L14 14L14 20L10 20ZM30 20L30 14L34 14L34 20L30 20ZM42 16L36 16L36 14C36 12.9 35.1 12 34 12L30 12C28.9 12 28 12.9 28 14L28 16L16 16L16 14C16 12.9 15.1 12 14 12L10 12C8.9 12 8 12.9 8 14L8 16L2 16L2 6L42 6L42 16Z" />
</svg>