<svg xmlns="http://www.w3.org/2000/svg" viewBox="0 0 38 45" width="38" height="45">
	<style>
		tspan { white-space:pre }
		.shp0 { fill: #629fd1 } 
	</style>
	<path id="Иконка" class="shp0" d="M19 24C14 24 13 27 13 30C13 33 14 40 15 42C16 44 17 44 17 44L21 44C21 44 22 44 23 42C24 40 25 33 25 30C25 27 24 24 19 24ZM21.21 41.11C20.95 41.62 20.74 41.88 20.62 42L17.38 42C17.26 41.88 17.05 41.62 16.79 41.11C16.05 39.64 15 33.1 15 30C15 27.05 16.05 26 19 26C21.95 26 23 27.05 23 30C23 33.1 21.95 39.64 21.21 41.11ZM23 18C23 15.79 21.21 14 19 14C16.79 14 15 15.79 15 18C15 20.21 16.79 22 19 22C21.21 22 23 20.21 23 18ZM17 18C17 16.9 17.9 16 19 16C20.1 16 21 16.9 21 18C21 19.1 20.1 20 19 20C17.9 20 17 19.1 17 18ZM30 18C30 11.93 25.08 7 19 7C12.92 7 8 11.93 8 18C8 21.26 9.43 24.18 11.68 26.2C11.95 25.54 12.3 24.95 12.72 24.44C11.05 22.81 10 20.53 10 18C10 13.03 14.03 9 19 9C23.97 9 28 13.03 28 18C28 20.56 26.92 22.87 25.21 24.51C25.63 25.01 25.98 25.6 26.26 26.25C28.55 24.24 30 21.29 30 18ZM19 0C9.06 0 1 8.06 1 18C1 25.18 5.22 31.37 11.3 34.25C11.21 33.41 11.13 32.61 11.08 31.89C6.26 29.14 3 23.95 3 18C3 9.16 10.16 2 19 2C27.84 2 35 9.16 35 18C35 23.95 31.75 29.13 26.93 31.88C26.89 32.59 26.82 33.39 26.72 34.24C32.79 31.35 37 25.17 37 18C37 8.06 28.94 0 19 0Z" />
</svg>