<svg xmlns="http://www.w3.org/2000/svg" viewBox="0 0 44 41" width="44" height="41">
	<style>
		tspan { white-space:pre }
		.shp0 { fill: #629fd1 } 
	</style>
	<path id="Иконка" class="shp0" d="M40 14L40 3C40 1.34 38.66 0 37 0C35.34 0 34 1.34 34 3L34 3.82L4.91 13.23C4.64 13.09 4.33 13 4 13L2 13C0.9 13 0 13.9 0 15L0 25C0 26.11 0.9 27 2 27L4 27C4.33 27 4.64 26.91 4.91 26.77L9.62 28.29L9.22 29.52C8.55 31.63 9.72 33.88 11.82 34.55L22.3 37.88C24.41 38.55 26.66 37.39 27.33 35.28L27.69 34.14L34 36.18L34 37C34 38.66 35.34 40 37 40C38.66 40 40 38.66 40 37L40 26C42.21 26 44 24.21 44 22L44 18C44 15.79 42.21 14 40 14ZM4 25L2 25L2 15L4 15L4 25ZM25.42 34.68C25.09 35.73 23.96 36.31 22.91 35.98L12.43 32.64C11.38 32.3 10.79 31.18 11.13 30.13L11.52 28.91L25.79 33.53L25.42 34.68ZM34 34.08L6 25.02C6 25.01 6 25.01 6 25L6 15C6 14.99 6 14.99 6 14.98L34 5.92L34 34.08ZM38 37C38 37.55 37.55 38 37 38C36.45 38 36 37.55 36 37L36 3C36 2.45 36.45 2 37 2C37.55 2 38 2.45 38 3L38 37ZM42 22C42 23.1 41.1 24 40 24L40 16C41.1 16 42 16.9 42 18L42 22Z" />
</svg>